<?xml version="1.0" encoding="UTF-8"?>
<svg width="200" height="200" viewBox="0 0 200 200" fill="none" xmlns="http://www.w3.org/2000/svg">
  <!-- Pattern Definition -->
  <defs>
    <pattern id="pony-grid" x="0" y="0" width="100" height="100" patternUnits="userSpaceOnUse">
      <!-- Stylized Pony Silhouette 1 -->
      <path d="M30 60c0 0-2-8 4-12s14 0 16 4c2 4 0 10-4 12s-8 0-10-2c-2-2-4-6-2-10" 
            fill="currentColor" opacity="0.3"/>
      
      <!-- Mane Details -->
      <path d="M42 48c0 0 4-6 8-4s2 8-2 10c-4 2-6-2-6-6" 
            fill="currentColor" opacity="0.2"/>
      
      <!-- Stylized Pony Silhouette 2 (Rotated) -->
      <path d="M80 30c0 0 8-2 12 4s0 14-4 16c-4 2-10 0-12-4s0-8 2-10c2-2 6-4 10-2" 
            fill="currentColor" opacity="0.3"/>
            
      <!-- Simple Star/Sparkle -->
      <path d="M20 20L22 18L20 16L18 18L20 20M20 16L20 20M18 18L22 18" 
            stroke="currentColor" opacity="0.2"/>
    </pattern>
  </defs>
  
  <!-- Apply Pattern -->
  <rect width="200" height="200" fill="url(#pony-grid)"/>
</svg> 